<svg width="512" height="129" viewBox="0 0 512 129" fill="none" xmlns="http://www.w3.org/2000/svg">
<path d="M167.466 86V45.6982H175.912V86H167.466ZM185.164 57.2919H191.9L192.01 61.3221H192.121C193.225 59.8867 194.587 58.7641 196.206 57.9544C197.862 57.1447 199.555 56.7398 201.285 56.7398C204.598 56.7398 207.027 57.7703 208.573 59.8314C210.155 61.8557 210.947 65.1866 210.947 69.8241V86H203.88V70.5418C203.88 67.3765 203.512 65.2418 202.776 64.1377C202.04 62.9967 200.715 62.4262 198.801 62.4262C197.181 62.4262 195.691 63.2543 194.329 64.9106C193.004 66.5668 192.341 68.4991 192.341 70.7074V86H185.164V57.2919ZM223.09 57.2919L229.77 81.749H229.881L236.506 57.2919H244.124L234.684 86H224.746L215.251 57.2919H223.09ZM253.974 69.3272H267.445C267.408 66.9349 266.8 65.113 265.623 63.8616C264.482 62.5734 262.862 61.9293 260.764 61.9293C258.74 61.9293 257.121 62.5734 255.906 63.8616C254.728 65.1498 254.084 66.9717 253.974 69.3272ZM253.974 74.2407C254.158 76.4122 254.986 78.1421 256.458 79.4303C257.967 80.6816 259.863 81.3073 262.145 81.3073C264.868 81.3073 267.573 80.6264 270.26 79.2646L271.916 84.3438C268.604 85.816 265.107 86.5521 261.427 86.5521C257.084 86.5521 253.551 85.2087 250.827 82.5219C248.14 79.8351 246.797 76.2098 246.797 71.6459C246.797 67.0085 248.048 63.3648 250.551 60.7148C253.054 58.0648 256.44 56.7398 260.709 56.7398C264.979 56.7398 268.291 58.0096 270.647 60.5491C273.039 63.0887 274.235 66.7324 274.235 71.4803C274.235 72.4004 274.18 73.3206 274.069 74.2407H253.974ZM300.366 64.2481C297.311 62.8495 294.311 62.1502 291.367 62.1502C287.981 62.1502 286.288 63.1439 286.288 65.1314C286.288 66.0883 286.656 66.8244 287.392 67.3397C288.128 67.855 289.416 68.2415 291.256 68.4991C295.342 69.088 298.268 70.1553 300.034 71.7011C301.801 73.2102 302.684 75.3081 302.684 77.9949C302.684 80.6448 301.654 82.7427 299.593 84.2886C297.569 85.7976 294.698 86.5521 290.98 86.5521C286.527 86.5521 282.57 85.6319 279.111 83.7917L280.491 78.3813C283.619 80.1848 286.987 81.0865 290.594 81.0865C293.796 81.0865 295.397 80.0191 295.397 77.8844C295.397 76.8907 295.066 76.1546 294.403 75.6761C293.741 75.1608 292.453 74.7376 290.539 74.4063C286.49 73.7438 283.583 72.6581 281.816 71.1491C280.086 69.6401 279.221 67.5974 279.221 65.021C279.221 62.4814 280.215 60.4755 282.202 59.0033C284.227 57.4943 287.153 56.7398 290.98 56.7398C294.808 56.7398 298.397 57.4391 301.746 58.8377L300.366 64.2481ZM320.067 58.396H329.949V63.7512H320.067V75.5105C320.067 77.682 320.343 79.1542 320.895 79.9271C321.447 80.6632 322.441 81.0313 323.877 81.0313C325.643 81.0313 327.299 80.7184 328.845 80.0928L329.784 85.4479C327.502 86.184 325.036 86.5521 322.386 86.5521C319 86.5521 316.534 85.7976 314.988 84.2886C313.479 82.7795 312.725 80.2768 312.725 76.7803V63.7512H306.762V58.396H312.725V47.9065H320.067V58.396ZM358.13 79.1542L359.786 84.5094C356.768 85.8712 353.639 86.5521 350.4 86.5521C345.8 86.5521 342.101 85.2087 339.304 82.5219C336.506 79.8351 335.108 76.2098 335.108 71.6459C335.108 66.9717 336.451 63.3279 339.138 60.7148C341.862 58.0648 345.616 56.7398 350.4 56.7398C353.639 56.7398 356.768 57.4207 359.786 58.7825L358.13 64.2481C355.811 62.9231 353.345 62.2606 350.732 62.2606C348.119 62.2606 346.076 63.0703 344.604 64.6897C343.168 66.3092 342.451 68.6279 342.451 71.6459C342.451 74.5904 343.205 76.9091 344.714 78.6021C346.26 80.2952 348.266 81.1417 350.732 81.1417C353.382 81.1417 355.848 80.4792 358.13 79.1542ZM378.448 56.7398C382.828 56.7398 385.975 57.6047 387.889 59.3346C389.803 61.0276 390.76 63.788 390.76 67.6158V78.2709C390.76 80.8841 391.036 83.4604 391.588 86H384.797C384.576 84.7854 384.411 83.3684 384.3 81.749H384.19C383.159 83.258 381.761 84.4358 379.994 85.2823C378.264 86.1288 376.369 86.5521 374.308 86.5521C371.621 86.5521 369.468 85.816 367.848 84.3438C366.266 82.8347 365.474 80.7552 365.474 78.1053C365.474 74.9032 366.818 72.3452 369.505 70.4314C372.228 68.4807 376.13 67.5053 381.209 67.5053H383.583V67.3397C383.583 65.389 383.196 64.0272 382.423 63.2543C381.65 62.4814 380.27 62.095 378.283 62.095C374.676 62.095 371.271 62.9231 368.069 64.5793L367.02 59.2242C370.517 57.5679 374.326 56.7398 378.448 56.7398ZM372.21 77.5532C372.21 78.731 372.559 79.6511 373.259 80.3136C373.958 80.9761 374.915 81.3073 376.13 81.3073C378.227 81.3073 379.994 80.6264 381.429 79.2646C382.865 77.9028 383.583 76.1914 383.583 74.1303V72.2532H381.209C378.301 72.2532 376.074 72.7501 374.528 73.7438C372.983 74.7008 372.21 75.9706 372.21 77.5532ZM398.664 57.2919H405.51L405.62 62.8127H405.73C409.006 58.7641 413.404 56.7398 418.925 56.7398V62.5918C414.84 62.5918 411.656 63.5856 409.374 65.5731C407.129 67.5237 406.006 70.1553 406.006 73.4678V86H398.664V57.2919ZM429.626 69.3272H443.096C443.059 66.9349 442.452 65.113 441.274 63.8616C440.133 62.5734 438.514 61.9293 436.416 61.9293C434.392 61.9293 432.772 62.5734 431.558 63.8616C430.38 65.1498 429.736 66.9717 429.626 69.3272ZM429.626 74.2407C429.81 76.4122 430.638 78.1421 432.11 79.4303C433.619 80.6816 435.514 81.3073 437.796 81.3073C440.52 81.3073 443.225 80.6264 445.912 79.2646L447.568 84.3438C444.256 85.816 440.759 86.5521 437.079 86.5521C432.736 86.5521 429.202 85.2087 426.479 82.5219C423.792 79.8351 422.449 76.2098 422.449 71.6459C422.449 67.0085 423.7 63.3648 426.203 60.7148C428.705 58.0648 432.092 56.7398 436.361 56.7398C440.63 56.7398 443.943 58.0096 446.298 60.5491C448.691 63.0887 449.887 66.7324 449.887 71.4803C449.887 72.4004 449.832 73.3206 449.721 74.2407H429.626Z" fill="#382C2C"/>
<circle cx="171.743" cy="36.9901" r="4.87129" fill="#382C2C"/>
<path fill-rule="evenodd" clip-rule="evenodd" d="M116.865 30.4724C121.822 30.6701 129.552 29.7792 129.552 29.7792C129.552 29.7792 128.988 31.7642 128.455 32.9685C127.791 34.4676 127.358 35.3965 126.413 36.7364C125.578 37.9206 125.018 38.46 123.99 39.4506L123.94 39.4983C122.73 40.6645 120.496 42.0781 120.496 42.0781C120.496 42.0781 120.916 43.4411 121.155 44.3229C121.266 44.7323 121.372 45.0989 121.472 45.4435C121.799 46.5659 122.057 47.4553 122.182 48.8315C122.366 50.8667 122.362 52.0727 121.865 54.0558C121.599 55.1166 121.17 55.8482 120.733 56.595C120.347 57.2536 119.954 57.9241 119.66 58.8425C119.133 60.4851 118.862 61.443 118.747 63.1636C118.641 64.7511 118.732 65.6622 119.006 67.2288C119.209 68.3845 119.497 69.1756 119.82 70.0613L119.82 70.0615C119.994 70.539 120.178 71.044 120.364 71.6486C120.546 72.2404 120.849 72.7481 121.135 73.2282C121.664 74.1135 122.136 74.9051 121.692 75.958C121.3 76.8882 120.789 77.3607 119.882 77.8032C118.552 78.4522 117.096 78.4402 116.173 78.2724C115.075 78.0725 113.868 77.7747 113.103 77.3311C112.293 76.8609 111.329 76.1351 110.441 75.1128C109.67 74.2256 109.253 73.3933 108.81 72.5105C108.554 72.001 108.29 71.4746 107.945 70.9112C107.204 69.7026 106.616 68.853 105.971 67.9218L105.971 67.9217C105.61 67.4005 105.231 66.8539 104.798 66.2044C104.027 65.0477 103.472 64.277 102.778 63.3137L102.778 63.3135C102.543 62.9875 102.292 62.6393 102.012 62.2467C101.928 62.1298 101.848 62.0163 101.77 61.9062L101.77 61.9061C100.945 60.7407 100.385 59.9491 99.0024 59.3155C97.8703 58.7968 97.0927 58.6653 95.8543 58.8031C94.856 58.9143 94.2884 59.1297 93.4195 59.6349C92.0476 60.4324 91.5381 61.462 90.9178 62.7155C90.7326 63.0897 90.5376 63.4838 90.3068 63.8976C90.2302 64.035 90.156 64.1673 90.084 64.2955C89.3271 65.6439 88.8215 66.5448 88.4944 68.1653C88.0912 70.1635 88.1711 71.4006 88.6476 73.3813C89.1996 75.6758 90.1497 76.9171 91.4515 78.6178C91.661 78.8914 91.8796 79.177 92.107 79.4807C93.5461 81.4022 94.4589 82.4393 96.315 83.9612C98.4817 85.7378 99.9501 86.43 102.488 87.6182C104.451 88.5377 105.581 89.0386 107.679 89.5897C109.839 90.1573 111.105 90.3067 113.336 90.4318C115.13 90.5325 116.314 90.4361 117.838 90.3121C118.27 90.2769 118.73 90.2395 119.238 90.2037C120.659 90.1038 124.783 89.3582 124.783 89.3582C124.783 89.3582 123.307 91.0845 121.976 92.1936C120.281 93.6066 117.338 95.7857 115.403 96.8463C113.425 97.9309 112.227 98.4906 109.998 99.0703C107.768 99.6501 106.319 99.8762 104.028 100.102C101.442 100.357 100.237 100.401 97.5752 100.179C95.0163 99.9662 93.4411 99.6912 90.9561 99.0468C88.5856 98.4322 87.3468 97.9391 85.1527 96.852C83.3757 95.9716 82.2992 95.3975 80.7388 94.1734C78.4979 92.4155 77.4542 91.2348 75.6141 89.088C75.4522 88.8992 75.3002 88.7235 75.1564 88.5573L75.1563 88.5571C74.1179 87.3569 73.5097 86.6538 72.7303 85.0951C71.7864 83.2072 71.7744 81.5986 72.2867 79.5494C72.7303 77.7747 73.0164 76.9968 73.8395 75.5565C74.7268 74.0037 75.5591 72.9264 77.0493 71.7854C78.4979 70.6762 81.0536 69.9292 81.0536 69.9292L77.0493 68.6429C77.0493 68.6429 77.5813 67.2807 78.0542 66.4615C78.1628 66.2735 78.265 66.0952 78.3631 65.9242C78.9918 64.8284 79.4483 64.0327 80.2725 62.9122C81.2696 61.5568 81.9123 60.8389 83.2561 59.8269C84.2494 59.0789 84.9484 58.6268 86.0401 58.032C86.1585 57.9674 86.2757 57.9031 86.3923 57.8391L86.3925 57.839L86.3925 57.8389C87.4273 57.2708 88.4181 56.7268 89.8659 56.278C91.5211 55.765 92.5408 55.6421 94.2697 55.744C95.8806 55.8389 96.8015 56.0624 98.2959 56.6701C99.7902 57.2778 100.271 57.5975 101.367 58.4434C102.513 59.3267 103.079 60.0366 103.9 61.067L103.901 61.0678C104.012 61.208 104.129 61.3542 104.252 61.5075C105.044 62.4912 105.56 63.2768 106.109 64.113C106.469 64.6594 106.842 65.2273 107.315 65.8862C107.949 66.7683 108.43 67.4708 108.896 68.1521L108.896 68.1523C109.476 68.9998 110.033 69.8147 110.836 70.902C111.002 71.128 111.153 71.3379 111.296 71.5357C111.986 72.4952 112.47 73.1685 113.547 74.0037C113.78 74.1845 113.981 74.3779 114.174 74.5629C114.659 75.0294 115.089 75.4426 115.833 75.4655C116.591 75.4889 117.677 74.8518 117.677 74.8518C117.677 74.8518 116.507 73.5491 115.898 72.6128C114.806 70.9338 114.12 69.693 113.226 67.9005C112.929 67.305 112.644 66.8134 112.375 66.3494C111.863 65.4651 111.408 64.6809 111.038 63.4676C110.865 62.8977 110.733 62.3929 110.609 61.9159C110.307 60.7521 110.047 59.7529 109.32 58.3732C108.072 56.0048 107.16 54.7663 105.398 52.7526C104.009 51.1668 103.185 50.2876 101.506 49.0141C99.7001 47.6444 98.5598 47.0127 96.4798 46.1122C94.4335 45.2264 93.2247 44.7668 91.0171 44.45C90.856 44.4268 90.7028 44.4047 90.5564 44.3835L90.5563 44.3835C88.6971 44.1145 87.9225 44.0024 85.5964 44.0567C83.8506 44.0975 82.4262 44.3667 80.7162 44.7222C78.9931 45.0805 78.0361 45.4354 76.524 46.3376C75.4454 46.9811 74.1523 48.5109 74.1523 48.5109L77.154 50.244C77.154 50.244 74.1975 50.924 72.376 51.5875C72.0584 51.7032 71.7583 51.8097 71.4717 51.9114C69.7423 52.5254 68.5034 52.9652 66.8713 54.1895C64.7941 55.7478 63.8265 56.9841 62.5543 59.2486C61.3579 61.3781 61.0036 62.7708 60.5334 65.1672C60.1152 67.2979 60.0127 68.5437 60.1247 70.7115C60.3111 74.3168 62.5093 79.6398 62.5093 79.6398C62.5093 79.6398 60.2954 76.3367 59.4578 73.9624C58.7957 72.0854 58.6358 70.9493 58.3602 68.9913L58.3534 68.943C57.9218 65.8766 57.9106 64.0996 58.1842 61.0141C58.4518 57.9956 58.6788 56.2578 59.6937 53.4018C60.9606 49.8367 62.1146 48.0321 64.3008 44.9441C66.1308 42.3591 67.4101 40.939 69.7213 38.7741C72.418 36.2482 74.198 35.0507 77.4909 33.3776C80.0668 32.0689 81.6303 31.5498 84.406 30.7508C89.5047 29.2831 92.5762 29.1544 97.8781 29.0196C101.084 28.9381 103.169 29.1223 105.912 29.3647C106.614 29.4267 107.359 29.4926 108.178 29.5588C109.642 29.6772 110.823 29.8378 111.966 29.9931C113.479 30.1986 114.924 30.3949 116.865 30.4724ZM116.273 54.6572C116.071 53.1924 116.55 50.8809 116.55 50.8809C116.55 50.8809 119.147 53.3433 118.746 55.1884C118.512 56.2637 117.173 57.5266 117.173 57.5266C117.173 57.5266 116.434 55.8205 116.273 54.6572ZM120.376 40.4559C120.376 40.4559 123.085 38.9546 125.082 36.5145C126.664 34.5806 127.966 31.4125 127.966 31.4125C127.966 31.4125 123.792 33.5358 121.194 34.3188C117.104 35.5515 111.988 35.3417 111.988 35.3417C111.988 35.3417 114.443 36.5983 116.898 38.0011C118.33 38.8194 120.376 40.4559 120.376 40.4559Z" fill="#382C2C"/>
<circle cx="138.78" cy="57.1698" r="4.21475" transform="rotate(2.67136 138.78 57.1698)" fill="#382C2C"/>
<circle cx="133.831" cy="43.0449" r="5.60952" transform="rotate(2.67136 133.831 43.0449)" fill="#382C2C"/>
<circle cx="139.108" cy="69.1769" r="3.32743" transform="rotate(2.67136 139.108 69.1769)" fill="#382C2C"/>
<circle cx="137.324" cy="78.8647" r="2.88378" transform="rotate(2.67136 137.324 78.8647)" fill="#382C2C"/>
<circle cx="133.216" cy="86.0013" r="2.21829" transform="rotate(2.67136 133.216 86.0013)" fill="#382C2C"/>
<circle cx="128.494" cy="91.9991" r="1.77463" transform="rotate(2.67136 128.494 91.9991)" fill="#382C2C"/>
<circle cx="123.877" cy="95.7809" r="0.887316" transform="rotate(2.67136 123.877 95.7809)" fill="#382C2C"/>
</svg>
