<svg width="512" height="512" viewBox="0 0 512 512" fill="none" xmlns="http://www.w3.org/2000/svg">
<path d="M79.8653 370V319.377H90.4753V370H79.8653ZM102.097 333.94H110.557L110.696 339.002H110.834C112.221 337.199 113.932 335.789 115.966 334.772C118.047 333.755 120.173 333.246 122.346 333.246C126.507 333.246 129.558 334.541 131.5 337.13C133.488 339.672 134.482 343.856 134.482 349.681V370H125.605V350.583C125.605 346.607 125.143 343.926 124.218 342.539C123.294 341.106 121.629 340.389 119.225 340.389C117.191 340.389 115.319 341.429 113.608 343.51C111.944 345.59 111.112 348.017 111.112 350.791V370H102.097V333.94ZM149.735 333.94L158.126 364.66H158.265L166.586 333.94H176.156L164.298 370H151.816L139.888 333.94H149.735ZM188.528 349.057H205.449C205.402 346.052 204.64 343.764 203.16 342.192C201.727 340.574 199.693 339.765 197.058 339.765C194.515 339.765 192.481 340.574 190.955 342.192C189.476 343.81 188.667 346.099 188.528 349.057ZM188.528 355.229C188.759 357.957 189.799 360.13 191.649 361.748C193.544 363.32 195.925 364.106 198.791 364.106C202.212 364.106 205.61 363.25 208.985 361.54L211.066 367.92C206.905 369.769 202.513 370.693 197.89 370.693C192.435 370.693 187.996 369.006 184.575 365.631C181.2 362.256 179.513 357.703 179.513 351.97C179.513 346.145 181.085 341.568 184.229 338.239C187.372 334.911 191.626 333.246 196.988 333.246C202.351 333.246 206.512 334.841 209.471 338.031C212.476 341.221 213.978 345.798 213.978 351.762C213.978 352.918 213.909 354.073 213.77 355.229H188.528ZM246.801 342.677C242.964 340.921 239.196 340.042 235.497 340.042C231.244 340.042 229.117 341.291 229.117 343.787C229.117 344.989 229.58 345.914 230.504 346.561C231.429 347.208 233.047 347.694 235.359 348.017C240.49 348.757 244.166 350.098 246.385 352.039C248.604 353.935 249.713 356.57 249.713 359.945C249.713 363.273 248.419 365.909 245.83 367.85C243.287 369.746 239.681 370.693 235.012 370.693C229.418 370.693 224.448 369.538 220.102 367.226L221.836 360.43C225.766 362.695 229.996 363.828 234.526 363.828C238.549 363.828 240.56 362.487 240.56 359.806C240.56 358.558 240.144 357.633 239.311 357.032C238.479 356.385 236.861 355.853 234.457 355.437C229.372 354.605 225.719 353.241 223.5 351.346C221.328 349.45 220.241 346.884 220.241 343.648C220.241 340.458 221.489 337.939 223.986 336.09C226.529 334.194 230.204 333.246 235.012 333.246C239.82 333.246 244.327 334.125 248.534 335.882L246.801 342.677ZM271.548 335.327H283.961V342.053H271.548V356.824C271.548 359.552 271.895 361.401 272.588 362.372C273.281 363.297 274.53 363.759 276.333 363.759C278.552 363.759 280.632 363.366 282.574 362.58L283.753 369.307C280.886 370.231 277.789 370.693 274.46 370.693C270.207 370.693 267.11 369.746 265.168 367.85C263.272 365.955 262.325 362.811 262.325 358.419V342.053H254.835V335.327H262.325V322.151H271.548V335.327ZM319.358 361.401L321.438 368.128C317.647 369.838 313.718 370.693 309.649 370.693C303.871 370.693 299.224 369.006 295.711 365.631C292.197 362.256 290.44 357.703 290.44 351.97C290.44 346.099 292.128 341.522 295.503 338.239C298.924 334.911 303.639 333.246 309.649 333.246C313.718 333.246 317.647 334.102 321.438 335.812L319.358 342.677C316.445 341.013 313.348 340.181 310.065 340.181C306.783 340.181 304.217 341.198 302.368 343.232C300.565 345.266 299.663 348.179 299.663 351.97C299.663 355.668 300.611 358.581 302.507 360.708C304.448 362.834 306.968 363.898 310.065 363.898C313.394 363.898 316.492 363.065 319.358 361.401ZM344.88 333.246C350.382 333.246 354.334 334.333 356.738 336.506C359.142 338.632 360.344 342.1 360.344 346.908V360.291C360.344 363.574 360.691 366.81 361.385 370H352.855C352.578 368.474 352.37 366.694 352.231 364.66H352.092C350.798 366.556 349.041 368.035 346.822 369.098C344.649 370.162 342.268 370.693 339.679 370.693C336.304 370.693 333.6 369.769 331.566 367.92C329.578 366.024 328.584 363.412 328.584 360.083C328.584 356.061 330.271 352.848 333.646 350.444C337.067 347.994 341.968 346.769 348.347 346.769H351.329V346.561C351.329 344.111 350.844 342.4 349.873 341.429C348.902 340.458 347.169 339.973 344.672 339.973C340.141 339.973 335.865 341.013 331.843 343.094L330.525 336.367C334.917 334.287 339.702 333.246 344.88 333.246ZM337.044 359.39C337.044 360.869 337.483 362.025 338.362 362.857C339.24 363.689 340.442 364.106 341.968 364.106C344.603 364.106 346.822 363.25 348.625 361.54C350.428 359.829 351.329 357.679 351.329 355.09V352.733H348.347C344.695 352.733 341.898 353.357 339.957 354.605C338.015 355.807 337.044 357.402 337.044 359.39ZM370.273 333.94H378.872L379.011 340.874H379.149C383.264 335.789 388.788 333.246 395.723 333.246V340.597C390.591 340.597 386.592 341.845 383.726 344.342C380.906 346.792 379.496 350.098 379.496 354.258V370H370.273V333.94ZM409.164 349.057H426.084C426.038 346.052 425.275 343.764 423.796 342.192C422.363 340.574 420.329 339.765 417.693 339.765C415.151 339.765 413.117 340.574 411.591 342.192C410.112 343.81 409.303 346.099 409.164 349.057ZM409.164 355.229C409.395 357.957 410.435 360.13 412.284 361.748C414.18 363.32 416.561 364.106 419.427 364.106C422.848 364.106 426.246 363.25 429.621 361.54L431.701 367.92C427.541 369.769 423.149 370.693 418.526 370.693C413.07 370.693 408.632 369.006 405.211 365.631C401.836 362.256 400.149 357.703 400.149 351.97C400.149 346.145 401.721 341.568 404.864 338.239C408.008 334.911 412.261 333.246 417.624 333.246C422.987 333.246 427.148 334.841 430.106 338.031C433.111 341.221 434.614 345.798 434.614 351.762C434.614 352.918 434.545 354.073 434.406 355.229H409.164Z" fill="white"/>
<circle cx="85.2377" cy="308.317" r="6.11881" fill="white"/>
<path fill-rule="evenodd" clip-rule="evenodd" d="M294.419 121.599C306.535 122.082 325.427 119.905 325.427 119.905C325.427 119.905 324.05 124.756 322.746 127.699C321.124 131.364 320.065 133.634 317.755 136.909C315.714 139.803 314.346 141.121 311.833 143.543L311.712 143.659C308.754 146.51 303.294 149.965 303.294 149.965C303.294 149.965 304.319 153.296 304.904 155.451C305.175 156.452 305.435 157.348 305.68 158.19L305.68 158.19C306.477 160.934 307.109 163.107 307.414 166.471C307.865 171.445 307.854 174.393 306.639 179.24C305.989 181.833 304.942 183.621 303.872 185.446C302.929 187.056 301.969 188.695 301.249 190.939C299.963 194.954 299.3 197.295 299.019 201.501C298.76 205.381 298.982 207.608 299.653 211.437C300.147 214.261 300.852 216.195 301.641 218.36C302.066 219.527 302.516 220.761 302.971 222.239C303.416 223.686 304.156 224.927 304.857 226.1C306.148 228.264 307.302 230.199 306.217 232.772C305.258 235.045 304.009 236.2 301.793 237.282C298.543 238.868 294.984 238.839 292.729 238.429C290.043 237.94 287.093 237.212 285.225 236.128C283.244 234.979 280.889 233.205 278.718 230.706C276.834 228.538 275.814 226.504 274.731 224.346C274.106 223.101 273.461 221.814 272.617 220.437C270.806 217.483 269.368 215.406 267.792 213.13C266.91 211.857 265.984 210.52 264.926 208.933C263.042 206.106 261.685 204.222 259.988 201.868L259.988 201.867L259.988 201.867C259.414 201.07 258.801 200.219 258.115 199.26C257.911 198.974 257.715 198.696 257.524 198.427C255.509 195.579 254.14 193.644 250.76 192.095C247.993 190.828 246.093 190.506 243.066 190.843C240.626 191.115 239.239 191.641 237.115 192.876C233.762 194.825 232.516 197.342 231 200.405C230.548 201.32 230.071 202.283 229.507 203.295C229.32 203.629 229.139 203.952 228.964 204.264L228.962 204.267C227.112 207.563 225.877 209.765 225.077 213.726C224.092 218.609 224.287 221.633 225.452 226.474C226.801 232.082 229.123 235.116 232.305 239.273L232.305 239.274C232.817 239.942 233.351 240.64 233.907 241.382C237.424 246.079 239.655 248.613 244.192 252.333C249.487 256.675 253.076 258.367 259.278 261.271C264.078 263.519 266.84 264.743 271.966 266.09C277.245 267.477 280.341 267.842 285.793 268.148C290.177 268.394 293.072 268.159 296.797 267.855C297.853 267.769 298.976 267.678 300.219 267.591C303.692 267.346 313.772 265.524 313.772 265.524C313.772 265.524 310.165 269.743 306.912 272.454C302.768 275.908 295.575 281.234 290.846 283.826C286.01 286.477 283.082 287.845 277.634 289.262C272.186 290.679 268.643 291.232 263.042 291.784C256.723 292.408 253.778 292.515 247.272 291.973C241.018 291.452 237.167 290.779 231.094 289.204C225.3 287.702 222.272 286.497 216.91 283.84C212.566 281.688 209.935 280.285 206.121 277.293C200.644 272.996 198.093 270.111 193.596 264.864C193.2 264.402 192.828 263.972 192.477 263.566C189.939 260.633 188.452 258.914 186.547 255.104C184.24 250.49 184.211 246.559 185.463 241.55C186.547 237.212 187.247 235.311 189.258 231.791C191.427 227.995 193.461 225.362 197.104 222.574C200.644 219.863 206.891 218.037 206.891 218.037L197.104 214.893C197.104 214.893 198.404 211.563 199.56 209.561C199.825 209.102 200.075 208.666 200.315 208.248C201.851 205.57 202.967 203.625 204.982 200.886C207.419 197.573 208.99 195.819 212.274 193.345C214.702 191.517 216.41 190.412 219.078 188.958C219.368 188.801 219.654 188.643 219.939 188.487L219.94 188.487C222.469 187.098 224.89 185.768 228.429 184.671C232.475 183.418 234.967 183.117 239.193 183.366C243.13 183.598 245.381 184.144 249.033 185.63C252.686 187.115 253.86 187.896 256.541 189.964C259.339 192.123 260.723 193.858 262.731 196.376L262.731 196.377C263.005 196.72 263.29 197.078 263.592 197.453C265.526 199.857 266.788 201.777 268.131 203.821C269.008 205.157 269.921 206.545 271.078 208.155C272.627 210.311 273.802 212.028 274.941 213.694C276.358 215.765 277.721 217.757 279.682 220.414C280.09 220.967 280.459 221.48 280.806 221.963L280.806 221.963C282.494 224.309 283.678 225.954 286.309 227.995C286.879 228.437 287.371 228.91 287.841 229.362C289.028 230.503 290.079 231.512 291.897 231.568C293.75 231.626 296.403 230.068 296.403 230.068C296.403 230.068 293.543 226.884 292.055 224.596C289.387 220.492 287.71 217.459 285.525 213.078C284.799 211.623 284.103 210.421 283.445 209.287C282.192 207.126 281.081 205.209 280.178 202.244C279.754 200.851 279.433 199.617 279.129 198.451L279.129 198.451C278.389 195.607 277.754 193.164 275.977 189.792C272.927 184.004 270.7 180.977 266.391 176.055C262.998 172.179 260.983 170.03 256.879 166.917C252.465 163.57 249.678 162.026 244.595 159.825C239.593 157.66 236.639 156.536 231.243 155.762C230.849 155.705 230.475 155.651 230.117 155.599L230.117 155.599C225.573 154.942 223.679 154.668 217.994 154.801C213.727 154.901 210.245 155.558 206.066 156.427C201.855 157.303 199.516 158.17 195.82 160.375C193.183 161.948 190.023 165.687 190.023 165.687L197.36 169.923C197.36 169.923 190.133 171.585 185.681 173.207C184.905 173.49 184.172 173.75 183.472 173.999L183.471 173.999C179.244 175.499 176.216 176.574 172.227 179.567C167.15 183.375 164.785 186.397 161.676 191.932C158.752 197.137 157.886 200.541 156.736 206.398C155.714 211.606 155.464 214.651 155.738 219.949C156.193 228.761 161.566 241.771 161.566 241.771C161.566 241.771 156.155 233.698 154.108 227.895C152.489 223.307 152.098 220.53 151.425 215.744L151.408 215.626C150.353 208.132 150.326 203.788 150.995 196.247C151.649 188.869 152.204 184.622 154.684 177.641C157.78 168.928 160.601 164.517 165.945 156.97C170.417 150.652 173.544 147.181 179.193 141.889C185.784 135.716 190.135 132.789 198.183 128.7C204.479 125.501 208.3 124.232 215.085 122.279C227.546 118.692 235.054 118.377 248.012 118.048C255.848 117.849 260.944 118.299 267.648 118.891C269.364 119.043 271.186 119.204 273.186 119.366C276.764 119.655 279.652 120.048 282.446 120.427C286.142 120.93 289.674 121.409 294.419 121.599ZM292.973 180.71C292.478 177.13 293.648 171.48 293.648 171.48C293.648 171.48 299.998 177.498 299.017 182.008C298.445 184.637 295.173 187.723 295.173 187.723C295.173 187.723 293.366 183.553 292.973 180.71ZM303 146C303 146 309.623 142.331 314.502 136.367C318.37 131.64 321.551 123.896 321.551 123.896C321.551 123.896 311.349 129.086 305 131C295.004 134.013 282.5 133.5 282.5 133.5C282.5 133.5 288.5 136.571 294.5 140C298 142 303 146 303 146Z" fill="white"/>
<circle cx="347.983" cy="186.851" r="10.3015" transform="rotate(2.67136 347.983 186.851)" fill="white"/>
<circle cx="335.885" cy="152.328" r="13.7105" transform="rotate(2.67136 335.885 152.328)" fill="white"/>
<circle cx="348.785" cy="216.198" r="8.13273" transform="rotate(2.67136 348.785 216.198)" fill="white"/>
<circle cx="344.423" cy="239.877" r="7.04836" transform="rotate(2.67136 344.423 239.877)" fill="white"/>
<circle cx="334.382" cy="257.32" r="5.42182" transform="rotate(2.67136 334.382 257.32)" fill="white"/>
<circle cx="322.843" cy="271.979" r="4.33745" transform="rotate(2.67136 322.843 271.979)" fill="white"/>
<circle cx="311.556" cy="281.222" r="2.16873" transform="rotate(2.67136 311.556 281.222)" fill="white"/>
</svg>
